<?xml version="1.0" encoding="UTF-8"?>
<!DOCTYPE svg PUBLIC "-//W3C//DTD SVG 1.1//EN" "http://www.w3.org/Graphics/SVG/1.1/DTD/svg11.dtd">
<svg xmlns="http://www.w3.org/2000/svg" version="1.1" width="500px" height="500px" style="shape-rendering:geometricPrecision; text-rendering:geometricPrecision; image-rendering:optimizeQuality; fill-rule:evenodd; clip-rule:evenodd" xmlns:xlink="http://www.w3.org/1999/xlink">
<g><path style="opacity:0.922" fill="#a4b95f" d="M 385.5,62.5 C 385.158,61.6618 384.492,61.3284 383.5,61.5C 388.419,57.3622 393.753,53.6955 399.5,50.5C 400.696,50.8457 400.696,51.3457 399.5,52C 394.655,55.3564 389.988,58.8564 385.5,62.5 Z"/></g>
<g><path style="opacity:1" fill="#97bf2a" d="M 383.5,61.5 C 384.492,61.3284 385.158,61.6618 385.5,62.5C 381.5,67.1667 377.167,71.5 372.5,75.5C 370.274,77.18 368.607,76.8466 367.5,74.5C 372.427,69.6983 377.76,65.365 383.5,61.5 Z"/></g>
<g><path style="opacity:1" fill="#75852e" d="M 367.5,74.5 C 368.607,76.8466 370.274,77.18 372.5,75.5C 372.5,75.8333 372.5,76.1667 372.5,76.5C 369.5,77.8333 366.5,77.8333 363.5,76.5C 365.062,76.2671 366.395,75.6005 367.5,74.5 Z"/></g>
<g><path style="opacity:1" fill="#fac88e" d="M 369.5,223.5 C 369.5,226.167 369.5,228.833 369.5,231.5C 353.793,240.681 338.46,250.347 323.5,260.5C 318.471,263.102 313.638,266.102 309,269.5C 308.915,272.361 309.749,275.028 311.5,277.5C 310.109,279.89 308.109,281.557 305.5,282.5C 302.617,279.891 299.283,278.058 295.5,277C 276.999,272.228 258.332,271.395 239.5,274.5C 225.889,275.922 212.223,277.756 198.5,280C 197.944,280.383 197.611,280.883 197.5,281.5C 193.074,283.135 188.407,283.635 183.5,283C 182.627,281.955 181.627,281.122 180.5,280.5C 179.833,280.167 179.167,279.833 178.5,279.5C 178.196,278.85 177.863,278.183 177.5,277.5C 180.219,274.9 180.886,271.9 179.5,268.5C 173.472,264.822 167.472,261.156 161.5,257.5C 148.167,248.833 134.833,240.167 121.5,231.5C 120.505,182.905 120.172,134.239 120.5,85.5C 202.812,84.3444 285.145,84.1778 367.5,85C 368.164,131.264 368.831,177.431 369.5,223.5 Z"/></g>
<g><path style="opacity:0.596" fill="#abba77" d="M 78.5,118.5 C 77.8333,119.167 77.1667,119.833 76.5,120.5C 72.4908,120.142 68.4908,119.642 64.5,119C 69.1548,118.501 73.8215,118.334 78.5,118.5 Z"/></g>
<g><path style="opacity:1" fill="#95bb2a" d="M 78.5,118.5 C 89.9537,119.422 101.287,121.089 112.5,123.5C 113.833,126.167 113.833,128.833 112.5,131.5C 101.09,126.255 89.0905,122.588 76.5,120.5C 77.1667,119.833 77.8333,119.167 78.5,118.5 Z"/></g>
<g><path style="opacity:0.907" fill="#3d352c" d="M 363.5,76.5 C 366.5,77.8333 369.5,77.8333 372.5,76.5C 374.411,76.5743 375.578,77.5743 376,79.5C 376.5,113.165 376.667,146.832 376.5,180.5C 375.504,195.658 375.17,210.991 375.5,226.5C 376.219,228.764 376.552,231.097 376.5,233.5C 372.797,234.508 369.13,235.842 365.5,237.5C 364.125,240.729 361.792,241.896 358.5,241C 362.379,237.946 366.045,234.779 369.5,231.5C 369.5,228.833 369.5,226.167 369.5,223.5C 369.5,176.5 369.5,129.5 369.5,82.5C 326.167,82.5 282.833,82.5 239.5,82.5C 199.961,81.8277 160.294,81.161 120.5,80.5C 119.702,80.9569 119.369,81.6236 119.5,82.5C 118.838,132.511 119.505,182.178 121.5,231.5C 134.833,240.167 148.167,248.833 161.5,257.5C 162.475,259.193 163.808,260.693 165.5,262C 169.415,264.771 173.415,267.271 177.5,269.5C 177.603,272.219 177.269,274.885 176.5,277.5C 176.747,278.713 177.414,279.38 178.5,279.5C 179.167,279.833 179.833,280.167 180.5,280.5C 180.818,284.151 182.818,286.151 186.5,286.5C 182.02,288.786 179.52,292.453 179,297.5C 177.748,299.001 176.748,300.668 176,302.5C 175.346,301.304 174.846,301.304 174.5,302.5C 174.863,303.183 175.196,303.85 175.5,304.5C 163.638,322.379 151.638,340.212 139.5,358C 147.544,369.05 156.71,379.217 167,388.5C 171.861,384.716 177.361,383.549 183.5,385C 186.595,385.935 188.929,387.769 190.5,390.5C 189.352,391.895 188.352,391.728 187.5,390C 181.917,389.809 176.417,389.309 171,388.5C 170.02,390.059 169.187,391.726 168.5,393.5C 167.476,394.853 166.143,395.52 164.5,395.5C 165.575,391.062 163.908,389.062 159.5,389.5C 150.416,381.33 142.249,372.33 135,362.5C 131.642,359.969 128.476,357.302 125.5,354.5C 125.44,353.957 125.107,353.624 124.5,353.5C 122.271,354.577 119.937,355.244 117.5,355.5C 117.504,357.842 118.337,359.842 120,361.5C 120.5,377.163 120.667,392.83 120.5,408.5C 119.852,406.502 119.019,404.502 118,402.5C 117.113,406.413 117.613,410.08 119.5,413.5C 117.432,416.348 117.098,419.348 118.5,422.5C 118.121,424.213 117.121,425.213 115.5,425.5C 115.5,420.167 115.5,414.833 115.5,409.5C 115.823,402.978 115.49,396.645 114.5,390.5C 115.64,380.577 115.807,370.577 115,360.5C 109.885,357.693 104.718,355.026 99.5,352.5C 99.7135,350.856 99.3802,349.356 98.5,348C 94.506,347.055 90.506,346.222 86.5,345.5C 84.8828,344.962 83.2161,344.629 81.5,344.5C 77.3224,340.574 72.3224,337.907 66.5,336.5C 63.0283,334.262 59.3617,332.262 55.5,330.5C 54.791,329.596 53.791,329.263 52.5,329.5C 51.5086,300.574 51.1753,271.574 51.5,242.5C 51.5,240.833 51.5,239.167 51.5,237.5C 51.3334,222.163 51.5001,206.83 52,191.5C 52.7247,190.941 53.5581,190.608 54.5,190.5C 73.7747,201.931 92.9413,213.598 112,225.5C 112.5,194.168 112.667,162.835 112.5,131.5C 113.833,128.833 113.833,126.167 112.5,123.5C 112.183,108.118 112.516,92.7851 113.5,77.5C 196.831,76.5 280.164,76.1667 363.5,76.5 Z"/></g>
<g><path style="opacity:1" fill="#e0ba8d" d="M 119.5,82.5 C 159.5,82.5 199.5,82.5 239.5,82.5C 282.833,82.5 326.167,82.5 369.5,82.5C 369.5,129.5 369.5,176.5 369.5,223.5C 368.831,177.431 368.164,131.264 367.5,85C 285.145,84.1778 202.812,84.3444 120.5,85.5C 120.172,134.239 120.505,182.905 121.5,231.5C 119.505,182.178 118.838,132.511 119.5,82.5 Z"/></g>
<g><path style="opacity:1" fill="#403328" d="M 192.5,108.5 C 195.779,109.031 197.113,111.031 196.5,114.5C 195.865,117.493 195.699,120.493 196,123.5C 209.83,130.607 209.83,137.94 196,145.5C 196.749,149.77 197.082,154.104 197,158.5C 196.215,160.286 195.049,161.786 193.5,163C 188.998,163.852 184.665,163.352 180.5,161.5C 177.697,163.783 175.364,166.45 173.5,169.5C 174.265,166.904 174.599,164.237 174.5,161.5C 175.5,161.5 176.5,161.5 177.5,161.5C 177.5,160.167 177.5,158.833 177.5,157.5C 180.487,157.998 183.487,158.498 186.5,159C 185.292,161.645 186.292,162.812 189.5,162.5C 191.912,162.594 193.745,161.594 195,159.5C 195.186,154.16 194.852,148.826 194,143.5C 192.272,142.648 192.105,141.648 193.5,140.5C 194.871,138.133 196.871,136.467 199.5,135.5C 200.626,134.192 200.626,132.858 199.5,131.5C 198.209,130.527 198.209,129.527 199.5,128.5C 196.696,127.895 194.029,127.062 191.5,126C 192.293,124.915 192.96,123.748 193.5,122.5C 191.201,118.059 190.868,113.392 192.5,108.5 Z"/></g>
<g><path style="opacity:1" fill="#333635" d="M 174.5,100.5 C 174.936,102.746 175.603,104.913 176.5,107C 182.016,107.173 187.349,107.673 192.5,108.5C 190.868,113.392 191.201,118.059 193.5,122.5C 192.96,123.748 192.293,124.915 191.5,126C 194.029,127.062 196.696,127.895 199.5,128.5C 198.209,129.527 198.209,130.527 199.5,131.5C 195.801,130.996 192.635,129.33 190,126.5C 189.502,121.481 189.668,116.481 190.5,111.5C 185.489,111.666 180.489,111.499 175.5,111C 172.11,108.286 169.61,105.119 168,101.5C 166.06,101.957 164.56,102.957 163.5,104.5C 162.962,102.883 162.629,101.216 162.5,99.5C 166.6,99.2367 170.6,99.5701 174.5,100.5 Z"/></g>
<g><path style="opacity:1" fill="#f4c996" d="M 227.5,119.5 C 256.33,118.336 285.33,118.17 314.5,119C 315.081,119.893 315.415,120.893 315.5,122C 314.582,124.086 313.915,126.253 313.5,128.5C 284.826,128.833 256.159,128.5 227.5,127.5C 226.873,126.583 226.539,125.583 226.5,124.5C 226.833,124.5 227.167,124.5 227.5,124.5C 227.611,125.117 227.944,125.617 228.5,126C 256.167,126.667 283.833,126.667 311.5,126C 312.823,125.184 313.489,124.017 313.5,122.5C 313.5,121.5 313.5,120.5 313.5,119.5C 284.833,119.5 256.167,119.5 227.5,119.5 Z"/></g>
<g><path style="opacity:1" fill="#4e3925" d="M 313.5,122.5 C 313.489,124.017 312.823,125.184 311.5,126C 283.833,126.667 256.167,126.667 228.5,126C 227.944,125.617 227.611,125.117 227.5,124.5C 227.263,123.209 227.596,122.209 228.5,121.5C 242.329,120.833 256.329,120.5 270.5,120.5C 285.055,120.517 299.388,121.183 313.5,122.5 Z"/></g>
<g><path style="opacity:1" fill="#3e3328" d="M 174.5,100.5 C 170.6,99.5701 166.6,99.2367 162.5,99.5C 162.629,101.216 162.962,102.883 163.5,104.5C 162.457,107.056 160.79,109.223 158.5,111C 153.845,111.499 149.179,111.666 144.5,111.5C 145.481,116.129 145.648,120.796 145,125.5C 142.079,127.377 139.246,129.377 136.5,131.5C 135.571,132.689 135.238,134.022 135.5,135.5C 135.311,139.96 137.311,142.627 141.5,143.5C 140.998,148.838 140.831,154.172 141,159.5C 143.153,162.124 145.987,163.124 149.5,162.5C 142.523,165.005 138.856,162.505 138.5,155C 138.481,152.001 139.148,149.168 140.5,146.5C 137.128,143.723 133.628,141.057 130,138.5C 129.333,135.833 129.333,133.167 130,130.5C 133.674,127.598 137.174,124.598 140.5,121.5C 135.682,107.322 140.349,102.322 154.5,106.5C 157.811,105.352 159.978,103.018 161,99.5C 164.033,95.226 167.867,94.3926 172.5,97C 173.823,97.8159 174.489,98.9826 174.5,100.5 Z"/></g>
<g><path style="opacity:1" fill="#3b3129" d="M 228.5,121.5 C 255.833,121.5 283.167,121.5 310.5,121.5C 310.5,122.5 310.5,123.5 310.5,124.5C 283.167,124.5 255.833,124.5 228.5,124.5C 228.5,123.5 228.5,122.5 228.5,121.5 Z"/></g>
<g><path style="opacity:1" fill="#c5a581" d="M 227.5,119.5 C 256.167,119.5 284.833,119.5 313.5,119.5C 313.5,120.5 313.5,121.5 313.5,122.5C 299.388,121.183 285.055,120.517 270.5,120.5C 256.329,120.5 242.329,120.833 228.5,121.5C 227.596,122.209 227.263,123.209 227.5,124.5C 227.167,124.5 226.833,124.5 226.5,124.5C 226.216,122.585 226.549,120.919 227.5,119.5 Z"/></g>
<g><path style="opacity:1" fill="#215273" d="M 199.5,131.5 C 200.626,132.858 200.626,134.192 199.5,135.5C 196.871,136.467 194.871,138.133 193.5,140.5C 191.308,141.787 189.975,143.787 189.5,146.5C 190.967,150.032 191.634,153.698 191.5,157.5C 187.1,157.317 182.766,156.651 178.5,155.5C 177.5,155.833 176.5,156.167 175.5,156.5C 172.747,159.688 170.247,163.021 168,166.5C 164.64,163.612 162.14,160.112 160.5,156C 158.667,155.833 156.833,155.667 155,155.5C 151.458,156.113 147.958,156.78 144.5,157.5C 147.893,147.312 144.893,139.979 135.5,135.5C 135.238,134.022 135.571,132.689 136.5,131.5C 139.246,129.377 142.079,127.377 145,125.5C 145.648,120.796 145.481,116.129 144.5,111.5C 149.179,111.666 153.845,111.499 158.5,111C 160.79,109.223 162.457,107.056 163.5,104.5C 164.56,102.957 166.06,101.957 168,101.5C 169.61,105.119 172.11,108.286 175.5,111C 180.489,111.499 185.489,111.666 190.5,111.5C 189.668,116.481 189.502,121.481 190,126.5C 192.635,129.33 195.801,130.996 199.5,131.5 Z"/></g>
<g><path style="opacity:1" fill="#473521" d="M 174.5,100.5 C 176.146,102.812 178.146,104.812 180.5,106.5C 185.196,104.647 189.863,104.48 194.5,106C 197.299,108.511 197.965,111.345 196.5,114.5C 197.113,111.031 195.779,109.031 192.5,108.5C 187.349,107.673 182.016,107.173 176.5,107C 175.603,104.913 174.936,102.746 174.5,100.5 Z"/></g>
<g><path style="opacity:1" fill="#462f17" d="M 239.5,82.5 C 199.5,82.5 159.5,82.5 119.5,82.5C 119.369,81.6236 119.702,80.9569 120.5,80.5C 160.294,81.161 199.961,81.8277 239.5,82.5 Z"/></g>
<g><path style="opacity:0.412" fill="#bfc893" d="M 463.5,151.5 C 465.628,150.371 467.961,150.204 470.5,151C 468.846,151.608 467.179,152.108 465.5,152.5C 465.158,151.662 464.492,151.328 463.5,151.5 Z"/></g>
<g><path style="opacity:1" fill="#eac091" d="M 217.5,145.5 C 255.331,144.336 293.331,144.169 331.5,145C 334.105,147.411 334.105,149.911 331.5,152.5C 332.833,153.167 334.167,153.833 335.5,154.5C 331.864,155.815 328.364,155.482 325,153.5C 322.897,155.662 320.73,155.829 318.5,154C 284.5,153.667 250.5,153.333 216.5,153C 213.447,151.419 212.78,149.086 214.5,146C 215.448,145.517 216.448,145.351 217.5,145.5 Z"/></g>
<g><path style="opacity:1" fill="#4f3c27" d="M 217.5,145.5 C 255.168,145.333 292.835,145.5 330.5,146C 331.833,147.667 331.833,149.333 330.5,151C 292.833,151.667 255.167,151.667 217.5,151C 216.248,149.172 216.248,147.339 217.5,145.5 Z"/></g>
<g><path style="opacity:1" fill="#3d3228" d="M 218.5,146.5 C 255.5,146.5 292.5,146.5 329.5,146.5C 329.5,147.833 329.5,149.167 329.5,150.5C 292.498,150.667 255.498,150.5 218.5,150C 217.316,148.855 217.316,147.688 218.5,146.5 Z"/></g>
<g><path style="opacity:1" fill="#b6d25a" d="M 463.5,151.5 C 464.492,151.328 465.158,151.662 465.5,152.5C 448.345,158.33 431.679,165.33 415.5,173.5C 416.174,171.976 417.174,170.642 418.5,169.5C 421.23,168.811 423.564,167.478 425.5,165.5C 428.905,164.575 432.239,163.575 435.5,162.5C 435.065,159.387 436.065,158.721 438.5,160.5C 440.108,158.738 442.108,157.572 444.5,157C 439.283,157.676 433.95,158.509 428.5,159.5C 427.584,159.457 426.917,159.124 426.5,158.5C 438.613,155.011 450.946,152.677 463.5,151.5 Z"/></g>
<g><path style="opacity:1" fill="#3a332e" d="M 135.5,135.5 C 144.893,139.979 147.893,147.312 144.5,157.5C 147.958,156.78 151.458,156.113 155,155.5C 156.833,155.667 158.667,155.833 160.5,156C 162.14,160.112 164.64,163.612 168,166.5C 170.247,163.021 172.747,159.688 175.5,156.5C 176.5,156.167 177.5,155.833 178.5,155.5C 182.766,156.651 187.1,157.317 191.5,157.5C 191.634,153.698 190.967,150.032 189.5,146.5C 189.975,143.787 191.308,141.787 193.5,140.5C 192.105,141.648 192.272,142.648 194,143.5C 194.852,148.826 195.186,154.16 195,159.5C 193.745,161.594 191.912,162.594 189.5,162.5C 186.292,162.812 185.292,161.645 186.5,159C 183.487,158.498 180.487,157.998 177.5,157.5C 177.5,158.833 177.5,160.167 177.5,161.5C 176.5,161.5 175.5,161.5 174.5,161.5C 174.599,164.237 174.265,166.904 173.5,169.5C 170.129,173.142 166.295,173.475 162,170.5C 160.291,167.582 158.458,164.748 156.5,162C 154.203,161.982 151.869,162.149 149.5,162.5C 145.987,163.124 143.153,162.124 141,159.5C 140.831,154.172 140.998,148.838 141.5,143.5C 137.311,142.627 135.311,139.96 135.5,135.5 Z"/></g>
<g><path style="opacity:1" fill="#b4d54c" d="M 415.5,173.5 C 406.408,178.74 397.408,184.24 388.5,190C 385.287,192.05 382.621,194.55 380.5,197.5C 379.167,197.5 377.833,197.5 376.5,197.5C 376.214,191.741 376.548,186.075 377.5,180.5C 392.974,171.263 409.307,163.93 426.5,158.5C 426.917,159.124 427.584,159.457 428.5,159.5C 433.95,158.509 439.283,157.676 444.5,157C 442.108,157.572 440.108,158.738 438.5,160.5C 436.065,158.721 435.065,159.387 435.5,162.5C 432.239,163.575 428.905,164.575 425.5,165.5C 423.564,167.478 421.23,168.811 418.5,169.5C 417.174,170.642 416.174,171.976 415.5,173.5 Z"/></g>
<g><path style="opacity:1" fill="#715533" d="M 162.5,196.5 C 217.336,196.168 272.003,196.501 326.5,197.5C 271.997,197.168 217.664,197.501 163.5,198.5C 162.833,198.5 162.167,198.5 161.5,198.5C 161.833,197.833 162.167,197.167 162.5,196.5 Z"/></g>
<g><path style="opacity:1" fill="#3c3129" d="M 326.5,197.5 C 326.5,198.833 326.5,200.167 326.5,201.5C 272.167,201.5 217.833,201.5 163.5,201.5C 163.5,200.5 163.5,199.5 163.5,198.5C 217.664,197.501 271.997,197.168 326.5,197.5 Z"/></g>
<g><path style="opacity:1" fill="#473119" d="M 326.5,197.5 C 328.582,198.585 328.916,200.085 327.5,202C 272.096,202.829 216.763,202.662 161.5,201.5C 161.5,200.5 161.5,199.5 161.5,198.5C 162.167,198.5 162.833,198.5 163.5,198.5C 163.5,199.5 163.5,200.5 163.5,201.5C 217.833,201.5 272.167,201.5 326.5,201.5C 326.5,200.167 326.5,198.833 326.5,197.5 Z"/></g>
<g><path style="opacity:1" fill="#e6c091" d="M 162.5,196.5 C 217.332,195.335 272.332,195.168 327.5,196C 329.444,198.153 329.944,200.653 329,203.5C 273.571,204.664 218.071,204.831 162.5,204C 161.748,203.329 161.414,202.496 161.5,201.5C 216.763,202.662 272.096,202.829 327.5,202C 328.916,200.085 328.582,198.585 326.5,197.5C 272.003,196.501 217.336,196.168 162.5,196.5 Z"/></g>
<g><path style="opacity:1" fill="#2a835f" d="M 63.5,203.5 C 99.1433,225.464 134.81,247.464 170.5,269.5C 172.113,270.838 172.613,272.505 172,274.5C 154.309,300.571 136.642,326.571 119,352.5C 116.88,353.605 114.713,353.605 112.5,352.5C 105.019,349.369 98.0189,345.203 91.5,340C 89.5,339.667 87.5,339.333 85.5,339C 77.4231,334.59 69.4231,330.09 61.5,325.5C 61.1788,323.952 60.1788,323.285 58.5,323.5C 58.1668,283.161 58.5001,242.828 59.5,202.5C 60.7362,203.246 62.0695,203.579 63.5,203.5 Z"/></g>
<g><path style="opacity:1" fill="#8bca8f" d="M 427.5,326.5 C 424.373,328.279 421.04,329.613 417.5,330.5C 415.801,330.34 414.134,330.506 412.5,331C 408.272,333.852 403.939,336.519 399.5,339C 397.287,339.626 395.12,339.459 393,338.5C 391.604,339.394 390.104,340.061 388.5,340.5C 385.764,339.466 383.097,338.633 380.5,338C 379.359,338.741 379.359,339.575 380.5,340.5C 383.07,341.223 385.403,342.39 387.5,344C 384.36,346.368 381.027,348.201 377.5,349.5C 375.579,350.641 373.579,350.808 371.5,350C 370.287,347.103 368.621,344.603 366.5,342.5C 367.612,340.369 369.112,340.369 371,342.5C 371.749,341.365 371.583,340.365 370.5,339.5C 369.186,338.687 368.019,337.687 367,336.5C 365.186,337.76 363.353,337.76 361.5,336.5C 360.3,333.41 358.467,330.743 356,328.5C 355.333,326.833 355.333,325.167 356,323.5C 357,322.167 358,322.167 359,323.5C 360.204,322.141 361.704,321.141 363.5,320.5C 359.581,319.022 356.081,319.689 353,322.5C 352.586,322.043 352.086,321.709 351.5,321.5C 347.445,315.493 343.445,309.493 339.5,303.5C 338.583,302.873 337.583,302.539 336.5,302.5C 330.339,294.183 324.672,285.517 319.5,276.5C 317.989,272.353 319.322,270.686 323.5,271.5C 324.711,270.726 324.711,269.893 323.5,269C 325.578,266.866 327.412,267.032 329,269.5C 333.504,264.672 338.337,260.172 343.5,256C 349.22,254.373 353.886,251.206 357.5,246.5C 363.66,241.92 369.993,237.586 376.5,233.5C 386.528,227.489 396.528,221.489 406.5,215.5C 409.421,215.854 411.754,214.854 413.5,212.5C 415.516,213.706 417.516,213.706 419.5,212.5C 421.833,210 424.167,207.5 426.5,205C 427.766,204.691 428.933,204.191 430,203.5C 430.5,243.499 430.667,283.499 430.5,323.5C 429.5,323.5 428.5,323.5 427.5,323.5C 427.5,324.5 427.5,325.5 427.5,326.5 Z"/></g>
<g><path style="opacity:1" fill="#93c60e" d="M 376.5,197.5 C 377.833,197.5 379.167,197.5 380.5,197.5C 387.103,201.137 392.436,206.137 396.5,212.5C 396.586,213.496 396.252,214.329 395.5,215C 389.974,217.926 384.641,221.093 379.5,224.5C 378.5,224.5 377.5,224.5 376.5,224.5C 376.5,215.5 376.5,206.5 376.5,197.5 Z"/></g>
<g><path style="opacity:1" fill="#383927" d="M 430.5,199.5 C 422.5,204.833 414.5,210.167 406.5,215.5C 396.528,221.489 386.528,227.489 376.5,233.5C 376.552,231.097 376.219,228.764 375.5,226.5C 377.153,226.34 378.486,225.674 379.5,224.5C 384.641,221.093 389.974,217.926 395.5,215C 396.252,214.329 396.586,213.496 396.5,212.5C 398.685,212.296 400.685,211.63 402.5,210.5C 402.5,211.5 402.5,212.5 402.5,213.5C 406.791,214.18 409.457,212.514 410.5,208.5C 415.534,206.759 420.2,204.259 424.5,201C 426.436,200.187 428.436,199.687 430.5,199.5 Z"/></g>
<g><path style="opacity:1" fill="#83a32d" d="M 376.5,180.5 C 376.833,180.5 377.167,180.5 377.5,180.5C 376.548,186.075 376.214,191.741 376.5,197.5C 376.5,206.5 376.5,215.5 376.5,224.5C 377.5,224.5 378.5,224.5 379.5,224.5C 378.486,225.674 377.153,226.34 375.5,226.5C 375.17,210.991 375.504,195.658 376.5,180.5 Z"/></g>
<g><path style="opacity:0.353" fill="#949b79" d="M 438.5,223.5 C 451.724,224.794 451.724,225.46 438.5,225.5C 437.167,224.833 437.167,224.167 438.5,223.5 Z"/></g>
<g><path style="opacity:1" fill="#93c493" d="M 430.5,199.5 C 431.665,240.998 431.831,282.665 431,324.5C 429.887,325.305 428.721,325.972 427.5,326.5C 427.5,325.5 427.5,324.5 427.5,323.5C 428.5,323.5 429.5,323.5 430.5,323.5C 430.667,283.499 430.5,243.499 430,203.5C 428.933,204.191 427.766,204.691 426.5,205C 424.167,207.5 421.833,210 419.5,212.5C 417.516,213.706 415.516,213.706 413.5,212.5C 411.754,214.854 409.421,215.854 406.5,215.5C 414.5,210.167 422.5,204.833 430.5,199.5 Z"/></g>
<g><path style="opacity:1" fill="#f4c999" d="M 153.5,227.5 C 152.047,226.175 152.381,225.342 154.5,225C 212.167,224.333 269.833,224.333 327.5,225C 329.314,227.481 329.98,230.315 329.5,233.5C 271.166,233.667 212.832,233.5 154.5,233C 152.368,231.38 152.035,229.546 153.5,227.5 Z"/></g>
<g><path style="opacity:1" fill="#3c3227" d="M 326.5,226.5 C 329.167,228.167 329.167,229.833 326.5,231.5C 269.832,231.667 213.166,231.5 156.5,231C 155.167,229.667 155.167,228.333 156.5,227C 213.166,226.5 269.832,226.333 326.5,226.5 Z"/></g>
<g><path style="opacity:1" fill="#7a6144" d="M 326.5,226.5 C 269.832,226.333 213.166,226.5 156.5,227C 155.167,228.333 155.167,229.667 156.5,231C 213.166,231.5 269.832,231.667 326.5,231.5C 269.668,232.665 212.668,232.832 155.5,232C 153.963,230.89 153.297,229.39 153.5,227.5C 154.289,227.217 154.956,226.717 155.5,226C 212.668,225.168 269.668,225.335 326.5,226.5 Z"/></g>
<g><path style="opacity:1" fill="#3a362c" d="M 438.5,223.5 C 437.167,224.167 437.167,224.833 438.5,225.5C 438.667,259.168 438.5,292.835 438,326.5C 437.578,328.426 436.411,329.426 434.5,329.5C 434.167,329.5 433.833,329.5 433.5,329.5C 430.911,329.461 428.911,330.461 427.5,332.5C 426.449,333.222 425.782,334.222 425.5,335.5C 415.266,339.617 405.266,344.283 395.5,349.5C 393.116,349.443 390.782,349.777 388.5,350.5C 387.833,350.167 387.167,349.833 386.5,349.5C 387.193,348.482 387.859,347.482 388.5,346.5C 398.327,341.42 407.994,336.087 417.5,330.5C 421.04,329.613 424.373,328.279 427.5,326.5C 428.721,325.972 429.887,325.305 431,324.5C 431.831,282.665 431.665,240.998 430.5,199.5C 428.436,199.687 426.436,200.187 424.5,201C 420.2,204.259 415.534,206.759 410.5,208.5C 409.457,212.514 406.791,214.18 402.5,213.5C 402.5,212.5 402.5,211.5 402.5,210.5C 412.914,203.207 423.747,196.54 435,190.5C 436.326,190.755 437.326,191.422 438,192.5C 438.5,202.828 438.666,213.161 438.5,223.5 Z"/></g>
<g><path style="opacity:0.551" fill="#768c49" d="M 51.5,237.5 C 51.5,239.167 51.5,240.833 51.5,242.5C 21.2231,244.68 21.2231,243.014 51.5,237.5 Z"/></g>
<g><path style="opacity:1" fill="#3b7a5f" d="M 63.5,202.5 C 63.5,202.833 63.5,203.167 63.5,203.5C 62.0695,203.579 60.7362,203.246 59.5,202.5C 58.5001,242.828 58.1668,283.161 58.5,323.5C 60.1788,323.285 61.1788,323.952 61.5,325.5C 60.1667,325.167 58.8333,324.833 57.5,324.5C 57.3333,282.832 57.5,241.165 58,199.5C 59.5833,200.971 61.4166,201.971 63.5,202.5 Z"/></g>
<g><path style="opacity:1" fill="#2b392c" d="M 63.5,202.5 C 61.4166,201.971 59.5833,200.971 58,199.5C 57.5,241.165 57.3333,282.832 57.5,324.5C 56.5013,282.67 56.168,240.67 56.5,198.5C 58.8333,198.5 61.1667,198.5 63.5,198.5C 63.5,199.833 63.5,201.167 63.5,202.5 Z"/></g>
<g><path style="opacity:1" fill="#e4be91" d="M 296.5,251.5 C 266.498,251.333 236.498,251.5 206.5,252C 205.167,253.667 205.167,255.333 206.5,257C 236.833,257.667 267.167,257.667 297.5,257C 298.752,255.172 298.752,253.339 297.5,251.5C 298.5,251.5 299.5,251.5 300.5,251.5C 300.917,254.079 300.25,256.246 298.5,258C 267.458,258.174 236.458,258.674 205.5,259.5C 201.562,256.57 201.562,253.737 205.5,251C 236.003,250.169 266.336,250.336 296.5,251.5 Z"/></g>
<g><path style="opacity:1" fill="#43301d" d="M 296.5,251.5 C 296.833,251.5 297.167,251.5 297.5,251.5C 298.752,253.339 298.752,255.172 297.5,257C 267.167,257.667 236.833,257.667 206.5,257C 205.167,255.333 205.167,253.667 206.5,252C 236.498,251.5 266.498,251.333 296.5,251.5 Z"/></g>
<g><path style="opacity:1" fill="#3a322c" d="M 207.5,252.5 C 236.833,252.5 266.167,252.5 295.5,252.5C 295.5,253.833 295.5,255.167 295.5,256.5C 266.167,256.5 236.833,256.5 207.5,256.5C 207.5,255.167 207.5,253.833 207.5,252.5 Z"/></g>
<g><path style="opacity:1" fill="#493723" d="M 161.5,257.5 C 167.472,261.156 173.472,264.822 179.5,268.5C 180.886,271.9 180.219,274.9 177.5,277.5C 177.863,278.183 178.196,278.85 178.5,279.5C 177.414,279.38 176.747,278.713 176.5,277.5C 177.269,274.885 177.603,272.219 177.5,269.5C 173.415,267.271 169.415,264.771 165.5,262C 163.808,260.693 162.475,259.193 161.5,257.5 Z"/></g>
<g><path style="opacity:1" fill="#8ec290" d="M 357.5,246.5 C 353.886,251.206 349.22,254.373 343.5,256C 338.337,260.172 333.504,264.672 329,269.5C 327.412,267.032 325.578,266.866 323.5,269C 324.711,269.893 324.711,270.726 323.5,271.5C 319.322,270.686 317.989,272.353 319.5,276.5C 316.09,274.778 315.757,272.611 318.5,270C 331.556,262.144 344.556,254.311 357.5,246.5 Z"/></g>
<g><path style="opacity:1" fill="#e4be90" d="M 239.5,274.5 C 225.72,277.318 211.72,279.652 197.5,281.5C 197.611,280.883 197.944,280.383 198.5,280C 212.223,277.756 225.889,275.922 239.5,274.5 Z"/></g>
<g><path style="opacity:1" fill="#fbd6d1" d="M 294.5,427.5 C 290.76,431.691 286.093,433.191 280.5,432C 264.5,417.333 248.5,402.667 232.5,388C 228.333,386.833 226.833,388.333 228,392.5C 243.03,406.033 257.863,419.699 272.5,433.5C 271.198,445.971 264.698,449.971 253,445.5C 255.15,428.816 247.983,421.816 231.5,424.5C 228.13,415.149 221.463,411.149 211.5,412.5C 209.753,402.603 203.753,397.936 193.5,398.5C 193.06,395.62 192.06,392.954 190.5,390.5C 188.929,387.769 186.595,385.935 183.5,385C 177.361,383.549 171.861,384.716 167,388.5C 156.71,379.217 147.544,369.05 139.5,358C 151.638,340.212 163.638,322.379 175.5,304.5C 179.303,299.851 182.97,295.018 186.5,290C 208.777,286.009 231.11,282.343 253.5,279C 268.427,278.265 283.093,279.932 297.5,284C 301.624,286.42 303.457,289.92 303,294.5C 299.083,298.709 294.25,301.209 288.5,302C 283.5,302.667 278.5,302.667 273.5,302C 263.736,298.03 253.736,297.364 243.5,300C 226.167,309.667 208.833,319.333 191.5,329C 184.983,334.215 183.149,340.715 186,348.5C 188.441,350.969 191.274,352.802 194.5,354C 201.556,354.788 208.556,354.455 215.5,353C 224.659,349.114 233.993,345.947 243.5,343.5C 246.592,343.507 249.592,344.007 252.5,345C 272.458,360.234 291.958,376.068 311,392.5C 312.825,402.663 308.658,408.163 298.5,409C 284.468,395.299 270.134,381.966 255.5,369C 251.889,367.746 250.389,368.912 251,372.5C 265.366,386.534 280.032,400.2 295,413.5C 298.265,418.26 298.099,422.926 294.5,427.5 Z"/></g>
<g><path style="opacity:1" fill="#3a382a" d="M 369.5,231.5 C 366.045,234.779 362.379,237.946 358.5,241C 361.792,241.896 364.125,240.729 365.5,237.5C 369.13,235.842 372.797,234.508 376.5,233.5C 369.993,237.586 363.66,241.92 357.5,246.5C 344.556,254.311 331.556,262.144 318.5,270C 315.757,272.611 316.09,274.778 319.5,276.5C 324.672,285.517 330.339,294.183 336.5,302.5C 347.833,319.5 359.167,336.5 370.5,353.5C 367.09,353.616 365.756,351.95 366.5,348.5C 365.5,348.5 364.5,348.5 363.5,348.5C 363.067,345.715 361.734,343.381 359.5,341.5C 358.566,343.095 358.566,344.761 359.5,346.5C 345.109,326.073 330.942,305.406 317,284.5C 316.329,283.748 315.496,283.414 314.5,283.5C 315.473,281.851 316.473,280.184 317.5,278.5C 315.779,275.092 315.112,271.425 315.5,267.5C 317.288,267.785 318.955,267.452 320.5,266.5C 319.494,265.604 319.494,264.938 320.5,264.5C 324.301,265.599 325.301,264.266 323.5,260.5C 338.46,250.347 353.793,240.681 369.5,231.5 Z"/></g>
<g><path style="opacity:1" fill="#cee2cc" d="M 314.5,283.5 C 315.496,283.414 316.329,283.748 317,284.5C 330.942,305.406 345.109,326.073 359.5,346.5C 359.539,347.583 359.873,348.583 360.5,349.5C 357.929,353.911 355.096,354.244 352,350.5C 338.247,329.993 324.247,309.659 310,289.5C 309.333,288.833 309.333,288.167 310,287.5C 311.667,286.267 313.167,284.933 314.5,283.5 Z"/></g>
<g><path style="opacity:1" fill="#38372c" d="M 170.5,269.5 C 172.722,269.559 173.722,270.725 173.5,273C 171.732,276.94 169.732,280.773 167.5,284.5C 168.005,285.919 169.005,286.585 170.5,286.5C 156.5,307.833 142.5,329.167 128.5,350.5C 126.824,349.817 126.157,348.483 126.5,346.5C 125.5,346.5 124.5,346.5 123.5,346.5C 122.874,349.315 121.54,351.815 119.5,354C 117.5,354.667 115.5,354.667 113.5,354C 112.944,353.617 112.611,353.117 112.5,352.5C 114.713,353.605 116.88,353.605 119,352.5C 136.642,326.571 154.309,300.571 172,274.5C 172.613,272.505 172.113,270.838 170.5,269.5 Z"/></g>
<g><path style="opacity:1" fill="#384206" d="M 433.5,329.5 C 431.819,331.008 429.819,332.008 427.5,332.5C 428.911,330.461 430.911,329.461 433.5,329.5 Z"/></g>
<g><path style="opacity:0.514" fill="#8b9e42" d="M 52.5,329.5 C 53.791,329.263 54.791,329.596 55.5,330.5C 53.5976,331.511 51.5976,331.678 49.5,331C 50.2438,329.961 51.2438,329.461 52.5,329.5 Z"/></g>
<g><path style="opacity:1" fill="#cee1cc" d="M 128.5,350.5 C 142.5,329.167 156.5,307.833 170.5,286.5C 171.712,285.77 172.712,284.77 173.5,283.5C 175.968,284.803 178.301,286.303 180.5,288C 165.361,309.972 150.028,331.805 134.5,353.5C 132.466,352.441 130.466,351.441 128.5,350.5 Z"/></g>
<g><path style="opacity:1" fill="#41342b" d="M 323.5,260.5 C 325.301,264.266 324.301,265.599 320.5,264.5C 319.494,264.938 319.494,265.604 320.5,266.5C 318.955,267.452 317.288,267.785 315.5,267.5C 315.112,271.425 315.779,275.092 317.5,278.5C 316.473,280.184 315.473,281.851 314.5,283.5C 313.167,284.933 311.667,286.267 310,287.5C 309.333,288.167 309.333,288.833 310,289.5C 324.247,309.659 338.247,329.993 352,350.5C 355.096,354.244 357.929,353.911 360.5,349.5C 359.873,348.583 359.539,347.583 359.5,346.5C 358.566,344.761 358.566,343.095 359.5,341.5C 361.734,343.381 363.067,345.715 363.5,348.5C 364.5,348.5 365.5,348.5 366.5,348.5C 365.756,351.95 367.09,353.616 370.5,353.5C 371.552,355.256 373.219,355.923 375.5,355.5C 375.5,356.5 375.5,357.5 375.5,358.5C 373.49,360.317 373.157,362.317 374.5,364.5C 374.5,368.5 374.5,372.5 374.5,376.5C 373.508,383.982 373.175,391.648 373.5,399.5C 372.852,392.257 371.852,384.924 370.5,377.5C 369.914,377.709 369.414,378.043 369,378.5C 368.547,393.813 368.381,408.979 368.5,424C 346.457,424.822 324.457,424.655 302.5,423.5C 299.787,424.914 297.12,426.247 294.5,427.5C 298.099,422.926 298.265,418.26 295,413.5C 280.032,400.2 265.366,386.534 251,372.5C 250.389,368.912 251.889,367.746 255.5,369C 270.134,381.966 284.468,395.299 298.5,409C 308.658,408.163 312.825,402.663 311,392.5C 291.958,376.068 272.458,360.234 252.5,345C 249.592,344.007 246.592,343.507 243.5,343.5C 233.993,345.947 224.659,349.114 215.5,353C 208.556,354.455 201.556,354.788 194.5,354C 191.274,352.802 188.441,350.969 186,348.5C 183.149,340.715 184.983,334.215 191.5,329C 208.833,319.333 226.167,309.667 243.5,300C 253.736,297.364 263.736,298.03 273.5,302C 278.5,302.667 283.5,302.667 288.5,302C 294.25,301.209 299.083,298.709 303,294.5C 303.457,289.92 301.624,286.42 297.5,284C 283.093,279.932 268.427,278.265 253.5,279C 231.11,282.343 208.777,286.009 186.5,290C 182.97,295.018 179.303,299.851 175.5,304.5C 175.196,303.85 174.863,303.183 174.5,302.5C 174.846,301.304 175.346,301.304 176,302.5C 176.748,300.668 177.748,299.001 179,297.5C 179.52,292.453 182.02,288.786 186.5,286.5C 182.818,286.151 180.818,284.151 180.5,280.5C 181.627,281.122 182.627,281.955 183.5,283C 188.407,283.635 193.074,283.135 197.5,281.5C 211.72,279.652 225.72,277.318 239.5,274.5C 258.332,271.395 276.999,272.228 295.5,277C 299.283,278.058 302.617,279.891 305.5,282.5C 308.109,281.557 310.109,279.89 311.5,277.5C 309.749,275.028 308.915,272.361 309,269.5C 313.638,266.102 318.471,263.102 323.5,260.5 Z"/></g>
<g><path style="opacity:1" fill="#f4b5ac" d="M 307.5,297.5 C 320.136,314.081 332.302,331.081 344,348.5C 346.073,351.73 347.906,355.063 349.5,358.5C 341.01,371.832 330.51,383.498 318,393.5C 316.71,389.76 314.543,386.593 311.5,384C 296.316,371.906 281.316,359.572 266.5,347C 282.02,346.492 296.186,341.992 309,333.5C 309.022,330.53 307.522,329.364 304.5,330C 294.819,335.337 284.486,338.671 273.5,340C 261.169,339.2 248.836,338.533 236.5,338C 227.807,342.18 218.807,345.514 209.5,348C 204.833,348.667 200.167,348.667 195.5,348C 191.234,346.634 189.734,343.801 191,339.5C 192.458,337.04 194.291,334.873 196.5,333C 212.5,324 228.5,315 244.5,306C 249.023,305.68 253.523,305.18 258,304.5C 268.278,307.681 278.778,308.847 289.5,308C 294.383,306.928 299.05,305.261 303.5,303C 305.464,301.549 306.797,299.716 307.5,297.5 Z"/></g>
<g><path style="opacity:1" fill="#95be23" d="M 433.5,329.5 C 433.833,329.5 434.167,329.5 434.5,329.5C 435.001,336.171 435.168,342.837 435,349.5C 430.108,346.063 426.941,341.396 425.5,335.5C 425.782,334.222 426.449,333.222 427.5,332.5C 429.819,332.008 431.819,331.008 433.5,329.5 Z"/></g>
<g><path style="opacity:1" fill="#3f3e19" d="M 86.5,346.5 C 86.5,346.167 86.5,345.833 86.5,345.5C 90.506,346.222 94.506,347.055 98.5,348C 99.3802,349.356 99.7135,350.856 99.5,352.5C 98.8333,352.5 98.1667,352.5 97.5,352.5C 94.6,349.214 90.9334,347.214 86.5,346.5 Z"/></g>
<g><path style="opacity:1" fill="#8ec08f" d="M 336.5,302.5 C 337.583,302.539 338.583,302.873 339.5,303.5C 343.445,309.493 347.445,315.493 351.5,321.5C 352.086,321.709 352.586,322.043 353,322.5C 356.081,319.689 359.581,319.022 363.5,320.5C 361.704,321.141 360.204,322.141 359,323.5C 358,322.167 357,322.167 356,323.5C 355.333,325.167 355.333,326.833 356,328.5C 358.467,330.743 360.3,333.41 361.5,336.5C 363.353,337.76 365.186,337.76 367,336.5C 368.019,337.687 369.186,338.687 370.5,339.5C 371.583,340.365 371.749,341.365 371,342.5C 369.112,340.369 367.612,340.369 366.5,342.5C 368.621,344.603 370.287,347.103 371.5,350C 373.579,350.808 375.579,350.641 377.5,349.5C 381.027,348.201 384.36,346.368 387.5,344C 385.403,342.39 383.07,341.223 380.5,340.5C 379.359,339.575 379.359,338.741 380.5,338C 383.097,338.633 385.764,339.466 388.5,340.5C 390.104,340.061 391.604,339.394 393,338.5C 395.12,339.459 397.287,339.626 399.5,339C 403.939,336.519 408.272,333.852 412.5,331C 414.134,330.506 415.801,330.34 417.5,330.5C 407.994,336.087 398.327,341.42 388.5,346.5C 382.823,348.755 377.323,351.422 372,354.5C 371.617,353.944 371.117,353.611 370.5,353.5C 359.167,336.5 347.833,319.5 336.5,302.5 Z"/></g>
<g><path style="opacity:1" fill="#383823" d="M 388.5,346.5 C 387.859,347.482 387.193,348.482 386.5,349.5C 387.167,349.833 387.833,350.167 388.5,350.5C 390.782,349.777 393.116,349.443 395.5,349.5C 395.5,349.833 395.5,350.167 395.5,350.5C 389.626,351.775 384.292,354.108 379.5,357.5C 378.167,357.833 376.833,358.167 375.5,358.5C 375.5,357.5 375.5,356.5 375.5,355.5C 373.219,355.923 371.552,355.256 370.5,353.5C 371.117,353.611 371.617,353.944 372,354.5C 377.323,351.422 382.823,348.755 388.5,346.5 Z"/></g>
<g><path style="opacity:1" fill="#fac88e" d="M 366.5,358.5 C 366.5,379.5 366.5,400.5 366.5,421.5C 345.833,421.5 325.167,421.5 304.5,421.5C 304.5,419.5 304.5,417.5 304.5,415.5C 307.337,415.316 309.337,413.982 310.5,411.5C 313.697,408.811 316.197,405.477 318,401.5C 333.435,389.567 346.602,375.567 357.5,359.5C 359.937,358.197 362.104,356.53 364,354.5C 365.481,355.471 366.315,356.804 366.5,358.5 Z"/></g>
<g><path style="opacity:1" fill="#92c60c" d="M 395.5,350.5 C 403.855,355.521 410.521,362.188 415.5,370.5C 415.297,372.638 414.297,374.305 412.5,375.5C 413.645,376.891 413.645,378.224 412.5,379.5C 408.312,379.29 405.645,377.29 404.5,373.5C 403.127,373.657 401.793,373.49 400.5,373C 394.585,369.136 388.418,365.636 382,362.5C 379.959,363.423 377.792,363.756 375.5,363.5C 375.351,362.448 375.517,361.448 376,360.5C 377.729,360.026 378.895,359.026 379.5,357.5C 384.292,354.108 389.626,351.775 395.5,350.5 Z"/></g>
<g><path style="opacity:1" fill="#97c227" d="M 86.5,346.5 C 90.9334,347.214 94.6,349.214 97.5,352.5C 95.0717,357.693 92.405,362.693 89.5,367.5C 89.7135,365.856 89.3802,364.356 88.5,363C 90.3008,362.683 90.6341,362.016 89.5,361C 91.3249,359.534 91.8249,357.701 91,355.5C 88.7283,354.76 86.7283,354.76 85,355.5C 84.362,361.701 83.0287,367.368 81,372.5C 80.6861,375.865 80.5194,379.031 80.5,382C 81.9961,382.507 83.1627,382.007 84,380.5C 84.3736,378.509 85.207,376.842 86.5,375.5C 83.0301,387.713 80.0301,400.046 77.5,412.5C 76.8333,412.167 76.1667,411.833 75.5,411.5C 75.1783,389.115 78.845,367.448 86.5,346.5 Z"/></g>
<g><path style="opacity:1" fill="#6e9628" d="M 66.5,336.5 C 72.3224,337.907 77.3224,340.574 81.5,344.5C 73.4163,355.661 66.083,367.328 59.5,379.5C 58.5,379.5 57.5,379.5 56.5,379.5C 56.1142,382.737 54.6142,385.403 52,387.5C 51.8333,386.5 51.6667,385.5 51.5,384.5C 54.0169,376.684 56.0169,368.684 57.5,360.5C 59.7119,352.197 62.7119,344.197 66.5,336.5 Z"/></g>
<g><path style="opacity:1" fill="#f7c78e" d="M 125.5,354.5 C 128.476,357.302 131.642,359.969 135,362.5C 142.249,372.33 150.416,381.33 159.5,389.5C 160.476,390.815 161.476,392.148 162.5,393.5C 158.333,397.502 155.666,402.335 154.5,408C 154.942,414.046 157.609,418.713 162.5,422C 148.837,422.5 135.171,422.667 121.5,422.5C 121.333,401.164 121.5,379.831 122,358.5C 122.949,356.907 124.115,355.574 125.5,354.5 Z"/></g>
<g><path style="opacity:1" fill="#93c70d" d="M 89.5,367.5 C 89.0198,370.443 88.0198,373.11 86.5,375.5C 85.207,376.842 84.3736,378.509 84,380.5C 83.1627,382.007 81.9961,382.507 80.5,382C 80.5194,379.031 80.6861,375.865 81,372.5C 83.0287,367.368 84.362,361.701 85,355.5C 86.7283,354.76 88.7283,354.76 91,355.5C 91.8249,357.701 91.3249,359.534 89.5,361C 90.6341,362.016 90.3008,362.683 88.5,363C 89.3802,364.356 89.7135,365.856 89.5,367.5 Z"/></g>
<g><path style="opacity:1" fill="#96c220" d="M 379.5,357.5 C 378.895,359.026 377.729,360.026 376,360.5C 375.517,361.448 375.351,362.448 375.5,363.5C 377.792,363.756 379.959,363.423 382,362.5C 388.418,365.636 394.585,369.136 400.5,373C 401.793,373.49 403.127,373.657 404.5,373.5C 405.645,377.29 408.312,379.29 412.5,379.5C 413.645,378.224 413.645,376.891 412.5,375.5C 414.297,374.305 415.297,372.638 415.5,370.5C 422.48,378.434 427.98,387.434 432,397.5C 433.971,401.74 435.305,406.073 436,410.5C 421.683,387.031 401.183,371.697 374.5,364.5C 373.157,362.317 373.49,360.317 375.5,358.5C 376.833,358.167 378.167,357.833 379.5,357.5 Z"/></g>
<g><path style="opacity:1" fill="#637830" d="M 374.5,376.5 C 376.153,376.66 377.486,377.326 378.5,378.5C 377.167,378.5 375.833,378.5 374.5,378.5C 374.205,385.588 374.538,392.588 375.5,399.5C 375.167,399.5 374.833,399.5 374.5,399.5C 374.167,399.5 373.833,399.5 373.5,399.5C 373.175,391.648 373.508,383.982 374.5,376.5 Z"/></g>
<g><path style="opacity:1" fill="#6e9629" d="M 378.5,378.5 C 393.667,388.673 405.334,402.007 413.5,418.5C 413.167,418.833 412.833,419.167 412.5,419.5C 401.481,410.489 389.147,403.822 375.5,399.5C 374.538,392.588 374.205,385.588 374.5,378.5C 375.833,378.5 377.167,378.5 378.5,378.5 Z"/></g>
<g><path style="opacity:1" fill="#73923c" d="M 57.5,360.5 C 56.0169,368.684 54.0169,376.684 51.5,384.5C 51.6667,385.5 51.8333,386.5 52,387.5C 54.6142,385.403 56.1142,382.737 56.5,379.5C 57.5,379.5 58.5,379.5 59.5,379.5C 54.3919,389.382 49.5586,399.382 45,409.5C 47.1411,392.601 51.3078,376.268 57.5,360.5 Z"/></g>
<g><path style="opacity:1" fill="#42342d" d="M 294.5,427.5 C 294.509,429.308 294.009,430.975 293,432.5C 290.147,433.875 287.481,435.542 285,437.5C 284.057,435.046 282.224,434.046 279.5,434.5C 277.616,434.716 275.949,435.383 274.5,436.5C 273.824,435.398 273.158,434.398 272.5,433.5C 257.863,419.699 243.03,406.033 228,392.5C 226.833,388.333 228.333,386.833 232.5,388C 248.5,402.667 264.5,417.333 280.5,432C 286.093,433.191 290.76,431.691 294.5,427.5 Z"/></g>
<g><path style="opacity:1" fill="#709233" d="M 114.5,390.5 C 115.49,396.645 115.823,402.978 115.5,409.5C 111.165,413.645 107.165,418.145 103.5,423C 102.833,423.667 102.167,423.667 101.5,423C 105.139,411.889 109.472,401.055 114.5,390.5 Z"/></g>
<g><path style="opacity:0.959" fill="#abbc69" d="M 75.5,411.5 C 76.1667,411.833 76.8333,412.167 77.5,412.5C 76.034,418.984 75.3673,418.651 75.5,411.5 Z"/></g>
<g><path style="opacity:1" fill="#f0ca9e" d="M 366.5,358.5 C 367.497,379.66 367.831,400.993 367.5,422.5C 346.167,422.5 324.833,422.5 303.5,422.5C 303.5,419.833 303.5,417.167 303.5,414.5C 306.022,413.989 308.355,412.989 310.5,411.5C 309.337,413.982 307.337,415.316 304.5,415.5C 304.5,417.5 304.5,419.5 304.5,421.5C 325.167,421.5 345.833,421.5 366.5,421.5C 366.5,400.5 366.5,379.5 366.5,358.5 Z"/></g>
<g><path style="opacity:1" fill="#433220" d="M 125.5,354.5 C 124.115,355.574 122.949,356.907 122,358.5C 121.5,379.831 121.333,401.164 121.5,422.5C 135.171,422.667 148.837,422.5 162.5,422C 157.609,418.713 154.942,414.046 154.5,408C 155.666,402.335 158.333,397.502 162.5,393.5C 161.476,392.148 160.476,390.815 159.5,389.5C 163.908,389.062 165.575,391.062 164.5,395.5C 162.677,397.026 160.844,398.692 159,400.5C 156.352,405.057 156.018,409.724 158,414.5C 159.509,415.09 161.009,415.756 162.5,416.5C 163.373,418.413 164.373,420.247 165.5,422C 164.328,422.419 163.328,423.085 162.5,424C 148.808,424.448 135.141,424.782 121.5,425C 120.106,424.044 119.439,422.711 119.5,421C 120.329,416.874 120.663,412.707 120.5,408.5C 120.667,392.83 120.5,377.163 120,361.5C 118.337,359.842 117.504,357.842 117.5,355.5C 119.937,355.244 122.271,354.577 124.5,353.5C 125.107,353.624 125.44,353.957 125.5,354.5 Z"/></g>
<g><path style="opacity:1" fill="#3d322c" d="M 373.5,399.5 C 373.833,399.5 374.167,399.5 374.5,399.5C 374.666,408.506 374.5,417.506 374,426.5C 373.5,427.667 372.667,428.5 371.5,429C 347.833,429.333 324.167,429.667 300.5,430C 294.917,437.634 287.583,440.467 278.5,438.5C 274.385,451.393 265.718,456.226 252.5,453C 251.335,451.916 250.002,451.083 248.5,450.5C 244.524,455.983 239.524,460.15 233.5,463C 224.015,464.433 218.015,460.6 215.5,451.5C 203.751,454.628 196.084,450.462 192.5,439C 184.776,439.805 178.776,436.805 174.5,430C 155.833,429.667 137.167,429.333 118.5,429C 116.574,428.578 115.574,427.411 115.5,425.5C 117.121,425.213 118.121,424.213 118.5,422.5C 117.098,419.348 117.432,416.348 119.5,413.5C 117.613,410.08 117.113,406.413 118,402.5C 119.019,404.502 119.852,406.502 120.5,408.5C 120.663,412.707 120.329,416.874 119.5,421C 119.439,422.711 120.106,424.044 121.5,425C 135.141,424.782 148.808,424.448 162.5,424C 163.328,423.085 164.328,422.419 165.5,422C 164.373,420.247 163.373,418.413 162.5,416.5C 161.009,415.756 159.509,415.09 158,414.5C 156.018,409.724 156.352,405.057 159,400.5C 160.844,398.692 162.677,397.026 164.5,395.5C 166.143,395.52 167.476,394.853 168.5,393.5C 169.187,391.726 170.02,390.059 171,388.5C 176.417,389.309 181.917,389.809 187.5,390C 188.352,391.728 189.352,391.895 190.5,390.5C 192.06,392.954 193.06,395.62 193.5,398.5C 203.753,397.936 209.753,402.603 211.5,412.5C 221.463,411.149 228.13,415.149 231.5,424.5C 247.983,421.816 255.15,428.816 253,445.5C 264.698,449.971 271.198,445.971 272.5,433.5C 273.158,434.398 273.824,435.398 274.5,436.5C 275.949,435.383 277.616,434.716 279.5,434.5C 282.224,434.046 284.057,435.046 285,437.5C 287.481,435.542 290.147,433.875 293,432.5C 294.009,430.975 294.509,429.308 294.5,427.5C 297.12,426.247 299.787,424.914 302.5,423.5C 324.457,424.655 346.457,424.822 368.5,424C 368.381,408.979 368.547,393.813 369,378.5C 369.414,378.043 369.914,377.709 370.5,377.5C 371.852,384.924 372.852,392.257 373.5,399.5 Z"/></g>
<g><path style="opacity:1" fill="#d39598" d="M 234.5,429.5 C 243.495,428.663 247.661,432.663 247,441.5C 243.522,446.279 239.689,450.779 235.5,455C 225.426,458.553 220.926,455.053 222,444.5C 226.195,439.389 230.362,434.389 234.5,429.5 Z"/></g>
<g><path style="opacity:1" fill="#dba2a4" d="M 212.5,418.5 C 225.06,418.954 228.226,424.621 222,435.5C 219.147,438.052 216.647,440.885 214.5,444C 204.14,448.317 199.307,444.817 200,433.5C 204.378,428.627 208.545,423.627 212.5,418.5 Z"/></g>
<g><path style="opacity:1" fill="#f1b4ac" d="M 194.5,404.5 C 203.508,405.01 207.008,409.677 205,418.5C 201.5,422.667 198,426.833 194.5,431C 184.558,434.381 179.725,430.881 180,420.5C 184.728,414.946 189.561,409.612 194.5,404.5 Z"/></g>
<g><path style="opacity:1" fill="#f8c2b8" d="M 174.5,390.5 C 183.005,389.514 187.171,393.18 187,401.5C 183.768,406.788 179.935,411.622 175.5,416C 164.848,419.347 160.348,415.514 162,404.5C 165.49,399.155 169.657,394.488 174.5,390.5 Z"/></g>
</svg>
